<svg width="1138" height="109" viewBox="0 0 1138 109" fill="none" xmlns="http://www.w3.org/2000/svg">
<g clip-path="url(#clip0_9_1778)">
<g opacity="0.12">
<path fill-rule="evenodd" clip-rule="evenodd" d="M1065.18 50.8292L1137.55 89.5347L1136.77 90.9978L1061.66 50.8292H902.349L972.345 104.467L971.332 105.784L899.618 50.8292H765.834L809.603 106.434H1135.89V108.924H2.07625V106.434H159.782L231.988 50.8292H62.5446L1.22015 82.1645L0.464722 80.6865L58.8967 50.8292H2.07625V49.1693H62.1451L154.724 1.86369H2.07625V0.203833H836.004L836.104 0.0730598L836.278 0.203833H970.046L970.154 0L970.536 0.203833H1135.89V1.86369H973.64L1062.08 49.1693H1135.89V50.8292H1065.18ZM1058.56 49.1693L970.121 1.86369H838.445L900.182 49.1693H1058.56ZM897.451 49.1693L835.714 1.86369H727.291L764.528 49.1693H897.451ZM762.415 49.1693L725.291 2.00707L725.473 1.86369H645.267L662.212 49.1693H762.415ZM660.449 49.1693L643.504 1.86369H501.152L501.27 1.91958L478.69 49.1693H660.449ZM661.044 50.8292L680.962 106.434H451.325L477.897 50.8292H661.044ZM682.725 106.434L662.808 50.8292H763.722L807.491 106.434H682.725ZM156.021 3.06504L155.407 1.86369H295.574L234.143 49.1693H65.793L156.021 3.06504ZM296.84 2.98354L295.977 1.86369H403.357L366.025 49.1693H236.864L296.84 2.98354ZM405.304 2.07587L405.035 1.86369H499.457L476.851 49.1693H368.139L405.304 2.07587ZM366.829 50.8292H476.057L449.555 106.288L449.861 106.434H322.948L366.829 50.8292ZM364.715 50.8292L320.833 106.434H162.502L234.708 50.8292H364.715Z" fill="white"/>
</g>
<path d="M956.208 49.5843H183.45V50.4143H956.208V49.5843Z" fill="url(#paint0_linear_9_1778)" fill-opacity="0.6"/>
</g>
<defs>
<linearGradient id="paint0_linear_9_1778" x1="153.077" y1="52.2529" x2="153.201" y2="60.3096" gradientUnits="userSpaceOnUse">
<stop stop-color="#0080FF"/>
<stop offset="0.3125" stop-color="#1A7992"/>
<stop offset="0.697917" stop-color="#6C2F73"/>
<stop offset="0.898958" stop-color="#D700FF"/>
<stop offset="1" stop-color="#191A1B"/>
</linearGradient>
<clipPath id="clip0_9_1778">
<rect width="1138" height="108.72" fill="white"/>
</clipPath>
</defs>
</svg>
