<svg width="20" height="20" viewBox="0 0 20 20" fill="none" xmlns="http://www.w3.org/2000/svg">
<path id="Vector" d="M10 0.41748C4.475 0.41748 0 4.89498 0 10.4175C0 14.8366 2.865 18.5841 6.8375 19.905C7.3375 19.9991 7.52083 19.69 7.52083 19.4241C7.52083 19.1866 7.5125 18.5575 7.50833 17.7241C4.72667 18.3275 4.14 16.3825 4.14 16.3825C3.685 15.2283 3.0275 14.92 3.0275 14.92C2.12167 14.3 3.0975 14.3125 3.0975 14.3125C4.10167 14.3825 4.62917 15.3425 4.62917 15.3425C5.52083 16.8716 6.97 16.43 7.54167 16.1741C7.63167 15.5275 7.88917 15.0866 8.175 14.8366C5.95417 14.5866 3.62 13.7266 3.62 9.89498C3.62 8.80331 4.0075 7.91165 4.64917 7.21165C4.53667 6.95915 4.19917 5.94248 4.73667 4.56498C4.73667 4.56498 5.57417 4.29665 7.48667 5.58998C8.28667 5.36748 9.13667 5.25748 9.98667 5.25248C10.8367 5.25748 11.6867 5.36748 12.4867 5.58998C14.3867 4.29665 15.2242 4.56498 15.2242 4.56498C15.7617 5.94248 15.4242 6.95915 15.3242 7.21165C15.9617 7.91165 16.3492 8.80331 16.3492 9.89498C16.3492 13.7366 14.0117 14.5825 11.7867 14.8283C12.1367 15.1283 12.4617 15.7416 12.4617 16.6783C12.4617 18.0166 12.4492 19.0916 12.4492 19.4166C12.4492 19.6791 12.6242 19.9916 13.1367 19.8916C17.1375 18.58 20 14.83 20 10.4175C20 4.89498 15.5225 0.41748 10 0.41748Z" fill="white"/>
</svg>
