<svg width="20" height="21" viewBox="0 0 20 21" fill="none" xmlns="http://www.w3.org/2000/svg">
<path id="Vector" d="M10 0.169922C7.28333 0.169922 6.94417 0.182422 5.8775 0.229922C4.8125 0.279922 4.0875 0.447422 3.45 0.694922C2.7925 0.949922 2.23417 1.29242 1.67833 1.84826C1.1225 2.40409 0.779167 2.96159 0.525 3.61992C0.2775 4.25742 0.109167 4.98242 0.06 6.04742C0.01 7.11409 0 7.45326 0 10.1699C0 12.8866 0.0125 13.2258 0.06 14.2924C0.11 15.3566 0.2775 16.0824 0.525 16.7199C0.78 17.3766 1.1225 17.9358 1.67833 18.4916C2.23417 19.0466 2.79167 19.3908 3.45 19.6449C4.08833 19.8916 4.81333 20.0608 5.8775 20.1099C6.94417 20.1599 7.28333 20.1699 10 20.1699C12.7167 20.1699 13.0558 20.1574 14.1225 20.1099C15.1867 20.0599 15.9125 19.8916 16.55 19.6449C17.2067 19.3899 17.7658 19.0466 18.3217 18.4916C18.8767 17.9358 19.2208 17.3791 19.475 16.7199C19.7217 16.0824 19.8908 15.3566 19.94 14.2924C19.99 13.2258 20 12.8866 20 10.1699C20 7.45326 19.9875 7.11409 19.94 6.04742C19.89 4.98325 19.7217 4.25659 19.475 3.61992C19.22 2.96242 18.8767 2.40409 18.3217 1.84826C17.7658 1.29242 17.2092 0.949089 16.55 0.694922C15.9125 0.447422 15.1867 0.279089 14.1225 0.229922C13.0558 0.179922 12.7167 0.169922 10 0.169922ZM10 1.96992C12.6692 1.96992 12.9875 1.98326 14.0417 2.02909C15.0167 2.07492 15.5458 2.23659 15.8975 2.37492C16.3658 2.55576 16.6975 2.77242 17.0492 3.12159C17.3983 3.47159 17.615 3.80409 17.7958 4.27242C17.9325 4.62409 18.0958 5.15325 18.14 6.12826C18.1875 7.18326 18.1983 7.49992 18.1983 10.1699C18.1983 12.8399 18.1858 13.1574 18.1367 14.2116C18.0858 15.1866 17.9233 15.7158 17.7858 16.0674C17.5992 16.5358 17.3867 16.8674 17.0367 17.2191C16.6875 17.5683 16.35 17.7849 15.8867 17.9658C15.5367 18.1024 14.9992 18.2658 14.0242 18.3099C12.9625 18.3574 12.65 18.3683 9.975 18.3683C7.29917 18.3683 6.98667 18.3558 5.92583 18.3066C4.95 18.2558 4.4125 18.0933 4.0625 17.9558C3.58833 17.7691 3.2625 17.5566 2.91333 17.2066C2.5625 16.8574 2.33833 16.5199 2.16333 16.0566C2.02583 15.7066 1.86417 15.1691 1.81333 14.1941C1.77583 13.1441 1.7625 12.8199 1.7625 10.1574C1.7625 7.49409 1.77583 7.16909 1.81333 6.10659C1.86417 5.13159 2.02583 4.59492 2.16333 4.24492C2.33833 3.76992 2.5625 3.44492 2.91333 3.09409C3.2625 2.74492 3.58833 2.51992 4.0625 2.34576C4.4125 2.20742 4.93833 2.04492 5.91333 1.99492C6.97583 1.95742 7.28833 1.94492 9.9625 1.94492L10 1.96992ZM10 5.03492C7.1625 5.03492 4.865 7.33492 4.865 10.1699C4.865 13.0074 7.165 15.3049 10 15.3049C12.8375 15.3049 15.135 13.0049 15.135 10.1699C15.135 7.33242 12.835 5.03492 10 5.03492ZM10 13.5033C8.15833 13.5033 6.66667 12.0116 6.66667 10.1699C6.66667 8.32825 8.15833 6.83659 10 6.83659C11.8417 6.83659 13.3333 8.32825 13.3333 10.1699C13.3333 12.0116 11.8417 13.5033 10 13.5033ZM16.5383 4.83242C16.5383 5.49492 16 6.03242 15.3383 6.03242C14.6758 6.03242 14.1383 5.49409 14.1383 4.83242C14.1383 4.17075 14.6767 3.63326 15.3383 3.63326C15.9992 3.63242 16.5383 4.17075 16.5383 4.83242Z" fill="white"/>
</svg>
