<svg width="20" height="17" viewBox="0 0 20 17" fill="none" xmlns="http://www.w3.org/2000/svg">
<path id="Vector" d="M19.9617 1.97746C19.2242 2.30163 18.4367 2.52246 17.6075 2.62329C18.4525 2.11413 19.1025 1.31163 19.41 0.354126C18.6175 0.816626 17.7392 1.15329 16.8042 1.34079C16.0575 0.541626 14.9933 0.041626 13.8117 0.041626C11.5475 0.041626 9.71167 1.87746 9.71167 4.13913C9.71167 4.46413 9.74917 4.77663 9.8175 5.07579C6.40917 4.91496 3.38833 3.27829 1.36667 0.804126C1.01083 1.40579 0.811667 2.10496 0.811667 2.86663C0.811667 4.29163 1.53667 5.54413 2.635 6.27996C1.9625 6.25829 1.33 6.07329 0.778333 5.76663V5.81746C0.778333 7.80496 2.18917 9.46246 4.06667 9.83996C3.7225 9.93246 3.35917 9.98246 2.98667 9.98246C2.725 9.98246 2.47417 9.95746 2.22333 9.91079C2.74917 11.5383 4.26083 12.725 6.06 12.7583C4.66 13.8575 2.88583 14.5125 0.975 14.5125C0.65 14.5125 0.325833 14.4933 0 14.4566C1.82417 15.6183 3.97333 16.2975 6.2975 16.2975C13.8425 16.2975 17.9633 10.0508 17.9633 4.64246C17.9633 4.46829 17.9633 4.29246 17.9508 4.11746C18.7517 3.54329 19.4508 2.81746 20.0008 1.99413L19.9617 1.97746Z" fill="white"/>
</svg>
