<svg width="20" height="15" viewBox="0 0 20 15" fill="none" xmlns="http://www.w3.org/2000/svg">
<path id="Vector" d="M19.5791 2.34074C19.4632 1.92554 19.2422 1.54726 18.9374 1.24245C18.6326 0.937639 18.2543 0.716615 17.8391 0.600739C16.2808 0.18324 10.0091 0.183239 10.0091 0.183239C10.0091 0.183239 3.75325 0.174906 2.17909 0.600739C1.76389 0.716615 1.3856 0.937639 1.08079 1.24245C0.775986 1.54726 0.554962 1.92554 0.439086 2.34074C0.143687 3.93616 -0.00194663 5.55571 0.00408624 7.17824C-0.000806147 8.79465 0.144822 10.408 0.439086 11.9974C0.554962 12.4126 0.775986 12.7909 1.08079 13.0957C1.3856 13.4005 1.76389 13.6215 2.17909 13.7374C3.73575 14.1557 10.0091 14.1557 10.0091 14.1557C10.0091 14.1557 16.2641 14.1557 17.8391 13.7374C18.2543 13.6215 18.6326 13.4005 18.9374 13.0957C19.2422 12.7909 19.4632 12.4126 19.5791 11.9974C19.8672 10.4074 20.0067 8.79408 19.9958 7.17824C20.0078 5.55628 19.8683 3.93674 19.5791 2.34074ZM8.00742 10.1707V4.17657L13.2274 7.17824L8.00742 10.1707Z" fill="white"/>
</svg>
